<?xml version="1.0" encoding="utf-8"?>
<!-- Generator: Adobe Illustrator 26.0.1, SVG Export Plug-In . SVG Version: 6.00 Build 0)  -->
<svg version="1.1" xmlns="http://www.w3.org/2000/svg" xmlns:xlink="http://www.w3.org/1999/xlink" x="0px" y="0px"
	 viewBox="0 0 500 500" style="enable-background:new 0 0 500 500;" xml:space="preserve">
<style type="text/css">
	.st0{fill:#E38686;}
	.st1{fill:none;stroke:#393C41;stroke-width:0.7688;stroke-miterlimit:10;}
	.st2{fill:none;stroke:#393C41;stroke-width:0.6035;stroke-miterlimit:10;}
	.st3{fill:none;stroke:#393C41;stroke-width:0.517;stroke-miterlimit:10;}
	.st4{fill:#D47777;}
	.st5{fill:#F7B024;}
	.st6{fill:#FAC261;}
	.st7{fill:#D63636;}
	.st8{fill:#DE5454;}
	.st9{fill:#393C41;}
	.st10{opacity:0.25;}
	.st11{fill:none;}
	.st12{font-family:'Chivo-Black';}
	.st13{font-size:21.4482px;}
	.st14{fill:#FFFFFF;}
	.st15{fill:#2E3136;}
	.st16{fill:#282A2F;}
	.st17{fill:#A5CAFF;stroke:#2E3136;stroke-width:3.1655;stroke-miterlimit:10;}
	.st18{opacity:0.8;}
	.st19{fill:#A5CAFF;}
	.st20{clip-path:url(#SVGID_00000065050420736229042640000009703099918366060438_);}
	.st21{fill:none;stroke:#2E3136;stroke-width:0.1475;stroke-miterlimit:10;}
	.st22{fill:#CFE4FF;}
	.st23{fill:#7388BF;}
	.st24{fill:#3F507D;}
	.st25{fill:#24262A;}
	.st26{font-family:'Amaranth-Regular';}
	.st27{font-size:28.0683px;}
	.st28{fill:#42494F;}
</style>
<g id="BACKGROUND">
</g>
<g id="OBJECTS">
	<g>
		<g>
			<g>
				<path class="st0" d="M140.35,237.04c0,0,2.07-23.8,17.12-23.8s21.07,22.56,19.57,41.46c-1.51,18.9,12.61,7.8,15.62,29.43
					c3.01,21.62-19,29.72-31.99,29.72c-12.98,0-43.27-14.84-42.71-45.7C118.52,237.29,137.9,263.54,140.35,237.04z"/>
				<line class="st1" x1="155.44" y1="238.16" x2="155.44" y2="355.2"/>
				<line class="st2" x1="177.21" y1="277.62" x2="155.44" y2="293.36"/>
				<line class="st2" x1="133.67" y1="265.46" x2="155.44" y2="281.2"/>
				<line class="st2" x1="170.27" y1="258.11" x2="155.44" y2="269.16"/>
				<line class="st2" x1="140.6" y1="245.6" x2="155.44" y2="256.64"/>
				<line class="st3" x1="155.44" y1="248.01" x2="166.33" y2="240.18"/>
			</g>
			<g>
				<path class="st4" d="M122.02,217.95c3.39,0.14,17.42-3.2,17.58,24c0.62,17.63,6.62,14.05,16.94,28.29
					c10.32,14.24-8.47,19.06-12.32,27.22c-3.85,8.16-12.79,10.72-18.48,10.72c-5.7,0-18.79-2.72-22.8-15.36
					c-4-12.64-17.87-9.53-19.1-22.12c-1.23-12.59,20.49-8.44,20.18-27.07C103.7,224.99,118.62,217.81,122.02,217.95z"/>
				<line class="st1" x1="122.8" y1="239.01" x2="122.8" y2="356.05"/>
				<line class="st2" x1="144.58" y1="278.47" x2="122.8" y2="294.22"/>
				<line class="st2" x1="101.03" y1="266.31" x2="122.8" y2="282.06"/>
				<line class="st2" x1="137.64" y1="258.97" x2="122.8" y2="270.01"/>
				<line class="st2" x1="107.97" y1="246.45" x2="122.8" y2="257.49"/>
				<line class="st3" x1="122.8" y1="248.86" x2="133.69" y2="241.03"/>
			</g>
		</g>
		<g>
			<path class="st5" d="M181.35,354.14c0,0,10.55-2.56,3.93-7.95c-6.62-5.39,4.14-10.56-0.57-14.17c-4.71-3.61-7.88,7.09-14.13,4.89
				c-6.25-2.2-3.63-17.69-10.69-18.09s-10.64,12.5-16.02,12.9c-5.38,0.4-5.05-9.48-10.21-8.28c-5.16,1.2-0.51,12.83-9.81,13.2
				s-7.32,6.26-1.63,7.85c4.56,1.08-4.24,8.16-1.03,9.64H181.35z"/>
			<path class="st6" d="M179.36,354.14c0,0,14.8-4.51,15.57-12.37c0.77-7.86-9.31-0.06-13.34-7.61
				c-4.04-7.55-2.61-16.07-10.49-16.27c-7.88-0.2-5.06,11.7-11.08,9.17c-6.02-2.53-11.28-9.31-17.94-7.32
				c-6.66,2-2.72,11.58-7.69,14.24c-4.97,2.66-8.97-4.12-15.12-1.86s0,7.45-2.56,10.78c-2.56,3.33-3.59,2.13-6.41,6.65
				c-2.82,4.52,10.38,4.59,10.38,4.59H179.36z"/>
		</g>
		<g>
			<g>
				<path class="st7" d="M419.37,237.04c0,0,2.07-23.8,17.12-23.8c15.05,0,21.07,22.56,19.57,41.46
					c-1.51,18.9,12.61,7.8,15.62,29.43c3.01,21.62-19,29.72-31.99,29.72c-12.98,0-43.27-14.84-42.71-45.7
					C397.54,237.29,416.92,263.54,419.37,237.04z"/>
				<line class="st1" x1="434.46" y1="238.16" x2="434.46" y2="355.2"/>
				<line class="st2" x1="456.23" y1="277.62" x2="434.46" y2="293.36"/>
				<line class="st2" x1="412.69" y1="265.46" x2="434.46" y2="281.2"/>
				<line class="st2" x1="449.29" y1="258.11" x2="434.46" y2="269.16"/>
				<line class="st2" x1="419.63" y1="245.6" x2="434.46" y2="256.64"/>
				<line class="st3" x1="434.46" y1="248.01" x2="445.35" y2="240.18"/>
			</g>
			<g>
				<path class="st8" d="M403.6,217.95c3.39,0.14,17.42-3.2,17.58,24c0.62,17.63,6.62,14.05,16.94,28.29
					c10.32,14.24-8.47,19.06-12.32,27.22c-3.85,8.16-12.79,10.72-18.48,10.72c-5.7,0-18.79-2.72-22.8-15.36
					c-4-12.64-17.87-9.53-19.1-22.12c-1.23-12.59,20.49-8.44,20.18-27.07C385.29,224.99,400.21,217.81,403.6,217.95z"/>
				<line class="st1" x1="404.39" y1="239.01" x2="404.39" y2="356.05"/>
				<line class="st2" x1="426.16" y1="278.47" x2="404.39" y2="294.22"/>
				<line class="st2" x1="382.61" y1="266.31" x2="404.39" y2="282.06"/>
				<line class="st2" x1="419.22" y1="258.97" x2="404.39" y2="270.01"/>
				<line class="st2" x1="389.55" y1="246.45" x2="404.39" y2="257.49"/>
				<line class="st3" x1="404.39" y1="248.86" x2="415.27" y2="241.03"/>
			</g>
		</g>
		<g>
			<g>
				<rect x="193.31" y="137.82" class="st9" width="177.03" height="131.18"/>
				<g>
					<g class="st10">
						<rect x="300.94" y="251.44" class="st11" width="71.39" height="29.11"/>
						<text transform="matrix(0.9629 0 0 1 300.9417 266.6665)" class="st12 st13">HOTEL</text>
					</g>
					<g>
						<rect x="299.17" y="251.44" class="st11" width="71.39" height="29.11"/>
						<text transform="matrix(0.9629 0 0 1 299.1714 266.6665)" class="st14 st12 st13">HOTEL</text>
					</g>
				</g>
				<g>
					<polygon class="st15" points="281.82,135.68 191.59,135.68 191.59,141.96 281.82,141.96 372.06,141.96 372.06,135.68 					"/>
					<polygon class="st16" points="281.82,130.62 189.08,130.62 189.08,135.68 281.82,135.68 374.57,135.68 374.57,130.62 					"/>
				</g>
				<g>
					<g>
						<g>
							<rect x="317.99" y="152.25" class="st17" width="59.55" height="35.76"/>
							<g class="st18">
								<polygon class="st14" points="328.62,186.37 321.21,186.36 363.55,153.91 370.56,153.9 								"/>
							</g>
						</g>
						<g>
							<g>
								<rect x="200.7" y="152.25" class="st17" width="24.61" height="35.76"/>
							</g>
							<g class="st18">
								<polygon class="st14" points="223.72,163.39 202.29,179.98 202.29,174.36 223.68,157.96 								"/>
							</g>
						</g>
						<g>
							<rect x="240.91" y="152.25" class="st17" width="24.61" height="35.76"/>
							<g class="st18">
								<polygon class="st14" points="263.93,163.39 242.5,179.98 242.49,174.36 263.88,157.96 								"/>
							</g>
						</g>
						<g>
							<rect x="279.45" y="152.25" class="st17" width="24.61" height="35.76"/>
							<g class="st18">
								<polygon class="st14" points="302.47,163.39 281.04,179.98 281.04,174.36 302.43,157.96 								"/>
							</g>
						</g>
					</g>
					<g>
						<g>
							<rect x="190.74" y="202.71" class="st17" width="59.55" height="35.76"/>
							<g class="st18">
								<polygon class="st14" points="200.73,236.83 193.31,236.83 235.65,204.37 242.66,204.36 								"/>
							</g>
						</g>
						<g>
							<rect x="260.89" y="202.71" class="st17" width="24.61" height="35.76"/>
							<g class="st18">
								<polygon class="st14" points="283.91,213.85 262.48,230.44 262.48,224.82 283.87,208.42 								"/>
							</g>
						</g>
						<g>
							<rect x="301.1" y="202.71" class="st17" width="24.61" height="35.76"/>
							<g class="st18">
								<polygon class="st14" points="324.12,213.85 302.69,230.44 302.68,224.82 324.07,208.42 								"/>
							</g>
						</g>
						<g>
							<rect x="339.64" y="202.71" class="st17" width="24.61" height="35.76"/>
							<g class="st18">
								<polygon class="st14" points="362.66,213.85 341.23,230.44 341.23,224.82 362.62,208.42 								"/>
							</g>
						</g>
					</g>
				</g>
				<g>
					<polygon class="st15" points="281.82,266.96 176.69,266.96 176.69,281.65 176.69,354.14 193.31,354.14 193.31,281.65 
						281.82,281.65 370.34,281.65 370.34,354.14 386.96,354.14 386.96,281.65 386.96,266.96 					"/>
					<g>
						<rect x="193.31" y="281.65" class="st19" width="177.03" height="72.49"/>
						<g>
							<rect x="291.07" y="307.38" class="st15" width="2.75" height="21.04"/>
							<rect x="280.45" y="307.38" class="st15" width="2.75" height="21.04"/>
						</g>
						<g>
							<defs>
								<rect id="SVGID_1_" x="193.31" y="281.65" width="177.03" height="72.49"/>
							</defs>
							<clipPath id="SVGID_00000146494015930986037080000015840968616335764670_">
								<use xlink:href="#SVGID_1_"  style="overflow:visible;"/>
							</clipPath>
							<g style="clip-path:url(#SVGID_00000146494015930986037080000015840968616335764670_);">
								<polygon class="st14" points="289,360.27 286.2,356.32 373.83,289.22 376.63,293.16 								"/>
							</g>
							<g style="clip-path:url(#SVGID_00000146494015930986037080000015840968616335764670_);">
								<polygon class="st14" points="191.31,360.27 188.51,356.32 294.02,275.53 296.82,279.48 								"/>
							</g>
						</g>
						<line class="st21" x1="286.74" y1="281.65" x2="286.74" y2="354.14"/>
					</g>
				</g>
			</g>
			<polygon class="st9" points="279.68,354.14 278.26,354.14 109.9,354.14 109.9,356.39 278.26,356.39 279.68,356.39 448.03,356.39 
				448.03,354.14 			"/>
		</g>
		<g>
			<path class="st5" d="M386.87,324.64c0.96-0.8,2.25-1.29,4.08-1.33c7.31-0.17,4.7,9.95,10.28,7.8c5.59-2.15,10.46-7.92,16.65-6.23
				s2.53,9.85,7.13,12.11c4.61,2.26,8.32-3.51,14.03-1.58c5.71,1.92,0,6.34,2.38,9.17c2.38,2.83,3.33,1.81,5.95,5.66
				c2.62,3.85-9.63,3.9-9.63,3.9h-50.78L386.87,324.64z"/>
			<path class="st6" d="M379.35,354.14c0,0-10.55-2.56-3.93-7.95s-4.14-10.56,0.57-14.17c4.71-3.61,7.88,7.09,14.13,4.89
				c6.25-2.2,3.63-17.69,10.69-18.09s10.64,12.5,16.02,12.9c5.38,0.4,5.05-9.48,10.21-8.28c5.16,1.2,0.51,12.83,9.81,13.2
				c9.3,0.37,7.32,6.26,1.63,7.85c-4.56,1.08,4.24,8.16,1.03,9.64H379.35z"/>
		</g>
	</g>
	<g>
		<g>
			<path class="st15" d="M177.49,397.29H46.34c-4.4,0-8-3.6-8-8V138.62c0-4.4,3.6-8,8-8h131.15c4.4,0,8,3.6,8,8v250.66
				C185.49,393.69,181.89,397.29,177.49,397.29z"/>
			<rect x="43.71" y="136.49" class="st14" width="136.41" height="244.25"/>
			<path class="st9" d="M117.05,393.41h-10.26c-2.32,0-4.22-1.9-4.22-4.22v-1.08c0-2.32,1.9-4.22,4.22-4.22h10.26
				c2.32,0,4.22,1.9,4.22,4.22v1.08C121.27,391.51,119.37,393.41,117.05,393.41z"/>
			<g>
				<g>
					<path class="st15" d="M102.17,136.13h0.08C102.2,136.13,102.17,136.13,102.17,136.13z"/>
					<path class="st15" d="M121.58,136.13h0.08C121.66,136.13,121.63,136.13,121.58,136.13z"/>
					<path class="st15" d="M111.91,136.13h-9.67c0.62,0,5.09,0.16,5.09,3.86c0,3.98,2.9,5.54,4.58,5.54c1.68,0,4.58-1.56,4.58-5.54
						c0-3.7,4.47-3.86,5.09-3.86H111.91z"/>
				</g>
				<path class="st14" d="M114.03,140.99c0,1.16-0.95,2.1-2.11,2.1c-1.17,0-2.11-0.94-2.11-2.1c0-1.16,0.95-2.1,2.11-2.1
					C113.08,138.89,114.03,139.83,114.03,140.99z"/>
			</g>
		</g>
		<rect x="51.41" y="158.89" class="st22" width="120.75" height="202.24"/>
		<g>
			<g>
				<path class="st15" d="M158.9,293.67H65.65c-1.1,0-2-0.9-2-2v-33.51c0-1.1,0.9-2,2-2h93.24c1.1,0,2,0.9,2,2v33.51
					C160.9,292.77,160,293.67,158.9,293.67z"/>
				<path class="st14" d="M101.88,281.31H77.2c-4.4,0-8-3.6-8-8v-3.97c0-4.4,3.6-8,8-8h24.68c4.4,0,8,3.6,8,8v3.97
					C109.88,277.71,106.28,281.31,101.88,281.31z"/>
				<path class="st14" d="M147.01,281.31h-24.68c-4.4,0-8-3.6-8-8v-3.97c0-4.4,3.6-8,8-8h24.68c4.4,0,8,3.6,8,8v3.97
					C155.01,277.71,151.41,281.31,147.01,281.31z"/>
				<path class="st23" d="M156.28,281.31c-8.46,0-32.69,0-42.41,0c0,0-1.56,0-4.11,0c-9.72,0-33.96,0-42.41,0
					c-10.3,6.18-8.77,15.89-8.77,15.89h51.18h4.11h51.18C165.05,297.2,166.57,287.49,156.28,281.31z"/>
				<path class="st24" d="M150.41,277.94c-7.34,0-28.4,0-36.84,0c0,0-1.35,0-3.57,0c-8.44,0-29.5,0-36.84,0
					c-8.94,1.8-7.62,4.63-7.62,4.63H110h3.57h44.46C158.03,282.57,159.35,279.74,150.41,277.94z"/>
				<rect x="56.66" y="294.93" class="st15" width="110.5" height="11.69"/>
				<rect x="58.7" y="306.62" class="st25" width="3.18" height="5.21"/>
				<rect x="161.95" y="306.62" class="st25" width="3.18" height="5.21"/>
			</g>
			<g>
				<polygon class="st6" points="83.7,325.14 85.69,330.63 91.58,330.81 86.92,334.39 88.57,340 83.7,336.71 78.84,340 
					80.48,334.39 75.83,330.81 81.71,330.63 				"/>
				<polygon class="st6" points="102.42,325.14 104.41,330.63 110.3,330.81 105.64,334.39 107.29,340 102.42,336.71 97.56,340 
					99.21,334.39 94.55,330.81 100.43,330.63 				"/>
				<polygon class="st6" points="121.14,325.14 123.13,330.63 129.02,330.81 124.36,334.39 126.01,340 121.14,336.71 116.28,340 
					117.93,334.39 113.27,330.81 119.16,330.63 				"/>
				<polygon class="st6" points="139.87,325.14 141.85,330.63 147.74,330.81 143.08,334.39 144.73,340 139.87,336.71 135,340 
					136.65,334.39 131.99,330.81 137.88,330.63 				"/>
			</g>
		</g>
		<g>
			<path class="st8" d="M169.64,225.41H61.13c-0.55,0-1-0.45-1-1V195.1c0-0.55,0.45-1,1-1h108.5c0.55,0,1,0.45,1,1v29.31
				C170.64,224.96,170.19,225.41,169.64,225.41z"/>
			<text transform="matrix(1.0077 0 0 1 69.2046 218.7242)" class="st14 st26 st27">Reserve</text>
			<rect x="54.69" y="207.54" class="st11" width="17.93" height="1.7"/>
			<rect x="204.69" y="184.38" class="st11" width="10" height="37.71"/>
		</g>
	</g>
	<g>
		<g>
			<path class="st22" d="M380.13,24.17c-21.44,0-38.82,17.38-38.82,38.82c0,12.87,6.27,24.28,15.92,31.34l-4.45,18.78l18.71-12.27
				c2.78,0.63,5.67,0.98,8.64,0.98c21.44,0,38.82-17.38,38.82-38.82S401.57,24.17,380.13,24.17z"/>
			<polygon class="st6" points="380.13,35.31 388.34,52.32 407.06,54.87 393.41,67.93 396.77,86.52 380.13,77.58 363.49,86.52 
				366.85,67.93 353.21,54.87 371.93,52.32 			"/>
		</g>
		<g>
			<path class="st22" d="M251.47,24.17c-21.44,0-38.82,17.38-38.82,38.82c0,12.87,6.27,24.28,15.92,31.34l-4.45,18.78l18.71-12.27
				c2.78,0.63,5.67,0.98,8.64,0.98c21.44,0,38.82-17.38,38.82-38.82S272.91,24.17,251.47,24.17z"/>
			<g>
				<path class="st23" d="M276.31,79.18h-46.77c-0.55,0-1-0.45-1-1v-28.5c0-0.55,0.45-1,1-1h46.77c0.55,0,1,0.45,1,1v28.5
					C277.31,78.73,276.86,79.18,276.31,79.18z"/>
				<rect x="228.54" y="67.68" class="st28" width="48.77" height="7.62"/>
				<rect x="264.1" y="53.18" class="st28" width="9.5" height="7"/>
			</g>
		</g>
		<g>
			<path class="st22" d="M119.87,24.17c-21.44,0-38.82,17.38-38.82,38.82c0,12.87,6.27,24.28,15.92,31.34l1.4,18.78l12.86-12.27
				c2.78,0.63,5.67,0.98,8.64,0.98c21.44,0,38.82-17.38,38.82-38.82S141.31,24.17,119.87,24.17z"/>
			<path class="st8" d="M130.81,46.93c0.67,0,1.39,0.03,2.16,0.1c4.67,0.4,10.07,4.12,10.73,11.24v2.37
				c-0.61,6.82-6.53,15.23-23.83,25.79c-17.3-10.56-23.22-18.97-23.83-25.79v-2.37c0.66-7.13,6.06-10.85,10.73-11.24
				c0.77-0.07,1.49-0.1,2.16-0.1c5.39,0,7.98,2.03,10.95,5.1C122.83,48.96,125.42,46.93,130.81,46.93"/>
		</g>
	</g>
</g>
<g id="DESIGNED_BY_FREEPIK">
</g>
</svg>
